<?xml version="1.0" standalone="no"?>
<!DOCTYPE svg PUBLIC "-//W3C//DTD SVG 20010904//EN"
 "http://www.w3.org/TR/2001/REC-SVG-20010904/DTD/svg10.dtd">
<svg version="1.0" xmlns="http://www.w3.org/2000/svg"
 width="200.000000pt" height="200.000000pt" viewBox="0 0 200.000000 200.000000"
 preserveAspectRatio="xMidYMid meet">
<metadata>
Created by potrace 1.16, written by Peter Selinger 2001-2019
</metadata>
<g transform="translate(0.000000,200.000000) scale(0.100000,-0.100000)"
fill="#000000" stroke="none">
<path d="M557 1952 c-14 -15 -17 -40 -17 -119 l0 -101 -123 -3 c-118 -4 -125
-5 -161 -33 -67 -51 -76 -76 -76 -208 l0 -118 835 0 835 0 0 118 c0 132 -9
157 -76 208 -36 28 -43 29 -161 33 l-123 3 0 102 c0 131 -4 136 -117 136 -109
0 -113 -5 -113 -138 l0 -102 -245 0 -245 0 0 103 c0 132 -4 137 -117 137 -65
0 -83 -3 -96 -18z"/>
<path d="M180 713 c0 -604 -4 -568 76 -629 l37 -29 722 0 722 0 37 29 c80 61
76 25 76 629 l0 537 -835 0 -835 0 0 -537z m460 287 c12 -7 15 -31 15 -110 0
-79 -3 -103 -15 -110 -8 -5 -55 -10 -105 -10 -49 0 -97 5 -105 10 -12 7 -15
31 -15 110 0 79 3 103 15 110 8 5 56 10 105 10 50 0 97 -5 105 -10z m480 0
c12 -7 15 -31 15 -110 0 -79 -3 -103 -15 -110 -8 -5 -55 -10 -105 -10 -49 0
-97 5 -105 10 -12 7 -15 31 -15 110 0 79 3 103 15 110 8 5 56 10 105 10 50 0
97 -5 105 -10z m480 0 c12 -7 15 -31 15 -110 0 -79 -3 -103 -15 -110 -8 -5
-55 -10 -105 -10 -49 0 -97 5 -105 10 -12 7 -15 31 -15 110 0 79 3 103 15 110
8 5 56 10 105 10 50 0 97 -5 105 -10z m-960 -480 c12 -7 15 -31 15 -110 0 -79
-3 -103 -15 -110 -8 -5 -55 -10 -105 -10 -49 0 -97 5 -105 10 -12 7 -15 31
-15 110 0 79 3 103 15 110 8 5 56 10 105 10 50 0 97 -5 105 -10z m480 0 c12
-7 15 -31 15 -110 0 -79 -3 -103 -15 -110 -8 -5 -55 -10 -105 -10 -49 0 -97 5
-105 10 -12 7 -15 31 -15 110 0 79 3 103 15 110 8 5 56 10 105 10 50 0 97 -5
105 -10z m480 0 c12 -7 15 -31 15 -110 0 -79 -3 -103 -15 -110 -8 -5 -55 -10
-105 -10 -49 0 -97 5 -105 10 -12 7 -15 31 -15 110 0 79 3 103 15 110 8 5 56
10 105 10 50 0 97 -5 105 -10z"/>
</g>
</svg>
