<?xml version="1.0" standalone="no"?>
<!DOCTYPE svg PUBLIC "-//W3C//DTD SVG 20010904//EN"
 "http://www.w3.org/TR/2001/REC-SVG-20010904/DTD/svg10.dtd">
<svg version="1.0" xmlns="http://www.w3.org/2000/svg"
 width="294.000000pt" height="219.000000pt" viewBox="0 0 294.000000 219.000000"
 preserveAspectRatio="xMidYMid meet">
<metadata>
Created by potrace 1.16, written by Peter Selinger 2001-2019
</metadata>
<g transform="translate(0.000000,219.000000) scale(0.100000,-0.100000)"
fill="#000000" stroke="none">
<path d="M963 1985 c-208 -45 -393 -224 -447 -432 -14 -52 -16 -140 -16 -584
0 -588 -4 -554 76 -615 l37 -29 302 0 302 0 37 29 c76 58 76 55 76 386 0 331
0 328 -76 386 l-37 29 -184 3 -183 4 0 112 c0 62 4 137 10 166 21 110 125 200
232 200 51 0 85 12 105 39 17 22 17 260 0 282 -32 41 -115 50 -234 24z"/>
<path d="M2043 1985 c-208 -45 -393 -224 -447 -432 -14 -52 -16 -140 -16 -584
0 -588 -4 -554 76 -615 l37 -29 302 0 302 0 37 29 c76 58 76 55 76 386 0 331
0 328 -76 386 l-37 29 -184 3 -183 4 0 112 c0 62 4 137 10 166 21 110 125 200
232 200 51 0 85 12 105 39 17 22 17 260 0 282 -32 41 -115 50 -234 24z"/>
</g>
</svg>
